<svg width="66" height="34" viewBox="0 0 66 34" fill="none" xmlns="http://www.w3.org/2000/svg">
<path d="M5.27344 19.2188C4.61719 19.2188 3.99219 19.0938 3.39844 18.8438C2.82031 18.5781 2.3125 18.2344 1.875 17.8125C1.4375 17.375 1.09375 16.8672 0.84375 16.2891C0.59375 15.6953 0.46875 15.0703 0.46875 14.4141V4.80469C0.46875 4.14844 0.59375 3.53125 0.84375 2.95312C1.09375 2.35938 1.4375 1.85156 1.875 1.42969C2.3125 0.992188 2.82031 0.648438 3.39844 0.398438C3.99219 0.132812 4.61719 0 5.27344 0H21.5859C22.2422 0 22.8594 0.132812 23.4375 0.398438C24.0312 0.648438 24.5469 0.992188 24.9844 1.42969C25.4219 1.85156 25.7656 2.35938 26.0156 2.95312C26.2656 3.53125 26.3906 4.14844 26.3906 4.80469V9.14062H21.5859V4.80469H5.27344V14.4141H21.5859C22.2422 14.4141 22.8594 14.5391 23.4375 14.7891C24.0312 15.0391 24.5469 15.3828 24.9844 15.8203C25.4219 16.2578 25.7656 16.7734 26.0156 17.3672C26.2656 17.9453 26.3906 18.5625 26.3906 19.2188V28.8047C26.3906 29.4609 26.2656 30.0859 26.0156 30.6797C25.7656 31.2578 25.4219 31.7656 24.9844 32.2031C24.5469 32.6406 24.0312 32.9844 23.4375 33.2344C22.8594 33.4844 22.2422 33.6094 21.5859 33.6094H4.80469C4.14844 33.6094 3.52344 33.4844 2.92969 33.2344C2.35156 32.9844 1.84375 32.6406 1.40625 32.2031C0.96875 31.7656 0.625 31.2578 0.375 30.6797C0.125 30.0859 0 29.4609 0 28.8047V24.4922H4.80469V28.8047H21.5859V19.2188H5.27344Z" fill="#FF9900"/>
<path d="M40.2734 33.6094H35.4688V0H40.2734L60.4766 26.0625V0H65.2812V33.6094H60.4766L40.2734 7.54688V33.6094Z" fill="white"/>
</svg>
