<svg width="67" height="34" viewBox="0 0 67 34" fill="none" xmlns="http://www.w3.org/2000/svg">
<path d="M6.11719 19.6094C5.46094 19.6094 4.83594 19.4844 4.24219 19.2344C3.66406 18.9688 3.15625 18.625 2.71875 18.2031C2.28125 17.7656 1.9375 17.2578 1.6875 16.6797C1.4375 16.0859 1.3125 15.4609 1.3125 14.8047V5.19531C1.3125 4.53906 1.4375 3.92188 1.6875 3.34375C1.9375 2.75 2.28125 2.24219 2.71875 1.82031C3.15625 1.38281 3.66406 1.03906 4.24219 0.789062C4.83594 0.523438 5.46094 0.390625 6.11719 0.390625H22.4297C23.0859 0.390625 23.7031 0.523438 24.2812 0.789062C24.875 1.03906 25.3906 1.38281 25.8281 1.82031C26.2656 2.24219 26.6094 2.75 26.8594 3.34375C27.1094 3.92188 27.2344 4.53906 27.2344 5.19531V9.53125H22.4297V5.19531H6.11719V14.8047H22.4297C23.0859 14.8047 23.7031 14.9297 24.2812 15.1797C24.875 15.4297 25.3906 15.7734 25.8281 16.2109C26.2656 16.6484 26.6094 17.1641 26.8594 17.7578C27.1094 18.3359 27.2344 18.9531 27.2344 19.6094V29.1953C27.2344 29.8516 27.1094 30.4766 26.8594 31.0703C26.6094 31.6484 26.2656 32.1562 25.8281 32.5938C25.3906 33.0312 24.875 33.375 24.2812 33.625C23.7031 33.875 23.0859 34 22.4297 34H5.64844C4.99219 34 4.36719 33.875 3.77344 33.625C3.19531 33.375 2.6875 33.0312 2.25 32.5938C1.8125 32.1562 1.46875 31.6484 1.21875 31.0703C0.96875 30.4766 0.84375 29.8516 0.84375 29.1953V24.8828H5.64844V29.1953H22.4297V19.6094H6.11719Z" fill="#FF9900"/>
<path d="M41.1172 34H36.3125V0.390625H41.1172L61.3203 26.4531V0.390625H66.125V34H61.3203L41.1172 7.9375V34Z" fill="black"/>
</svg>
