<svg width="323" height="34" viewBox="0 0 323 34" fill="none" xmlns="http://www.w3.org/2000/svg">
<path d="M5.27344 19.2188C4.61719 19.2188 3.99219 19.0938 3.39844 18.8438C2.82031 18.5781 2.3125 18.2344 1.875 17.8125C1.4375 17.375 1.09375 16.8672 0.84375 16.2891C0.59375 15.6953 0.46875 15.0703 0.46875 14.4141V4.80469C0.46875 4.14844 0.59375 3.53125 0.84375 2.95312C1.09375 2.35938 1.4375 1.85156 1.875 1.42969C2.3125 0.992188 2.82031 0.648438 3.39844 0.398438C3.99219 0.132812 4.61719 0 5.27344 0H21.5859C22.2422 0 22.8594 0.132812 23.4375 0.398438C24.0312 0.648438 24.5469 0.992188 24.9844 1.42969C25.4219 1.85156 25.7656 2.35938 26.0156 2.95312C26.2656 3.53125 26.3906 4.14844 26.3906 4.80469V9.14062H21.5859V4.80469H5.27344V14.4141H21.5859C22.2422 14.4141 22.8594 14.5391 23.4375 14.7891C24.0312 15.0391 24.5469 15.3828 24.9844 15.8203C25.4219 16.2578 25.7656 16.7734 26.0156 17.3672C26.2656 17.9453 26.3906 18.5625 26.3906 19.2188V28.8047C26.3906 29.4609 26.2656 30.0859 26.0156 30.6797C25.7656 31.2578 25.4219 31.7656 24.9844 32.2031C24.5469 32.6406 24.0312 32.9844 23.4375 33.2344C22.8594 33.4844 22.2422 33.6094 21.5859 33.6094H4.80469C4.14844 33.6094 3.52344 33.4844 2.92969 33.2344C2.35156 32.9844 1.84375 32.6406 1.40625 32.2031C0.96875 31.7656 0.625 31.2578 0.375 30.6797C0.125 30.0859 0 29.4609 0 28.8047V24.4922H4.80469V28.8047H21.5859V19.2188H5.27344Z" fill="#FF9900"/>
<path d="M35.0625 0H59.5547V4.80469H39.8672V14.4141H56.6719V19.2188H39.8672V28.8047H59.5547V33.6094H35.0625V0Z" fill="#FF9900"/>
<path d="M93.3047 12C93.3047 16.6875 91.3047 19.3594 87.3047 20.0156L93.6328 33.6094H88.3125L82.0781 20.1797H71.5547V33.6094H66.75V0H85.1484C90.5859 0 93.3047 2.72656 93.3047 8.17969V12ZM71.5547 15.375H84.8906C86.1719 15.375 87.0938 15.0938 87.6562 14.5312C88.2188 13.9688 88.5 13.0469 88.5 11.7656V8.41406C88.5 7.13281 88.2188 6.21094 87.6562 5.64844C87.0938 5.08594 86.1719 4.80469 84.8906 4.80469H71.5547V15.375Z" fill="#FF9900"/>
<path d="M98.4609 0H125.344V4.80469H114.305V33.6094H109.5V4.80469H98.4609V0Z" fill="#FF9900"/>
<path d="M148.273 33.6094H143.469V0H148.273L168.477 26.0625V0H173.281V33.6094H168.477L148.273 7.54688V33.6094Z" fill="white"/>
<path d="M196.789 0L209.75 33.6094H204.945L201.969 25.875H186.805L183.828 33.6094H179.023L191.984 0H196.789ZM188.633 21.0703H200.117L194.398 6.25781L188.633 21.0703Z" fill="white"/>
<path d="M208.789 0H235.672V4.80469H224.633V33.6094H219.828V4.80469H208.789V0Z" fill="white"/>
<path d="M246.242 0V33.6094H241.438V0H246.242Z" fill="white"/>
<path d="M283.695 28.8047C283.695 29.4609 283.57 30.0859 283.32 30.6797C283.07 31.2578 282.727 31.7656 282.289 32.2031C281.852 32.6406 281.336 32.9844 280.742 33.2344C280.164 33.4844 279.547 33.6094 278.891 33.6094H259.695C259.039 33.6094 258.414 33.4844 257.82 33.2344C257.242 32.9844 256.734 32.6406 256.297 32.2031C255.859 31.7656 255.516 31.2578 255.266 30.6797C255.016 30.0859 254.891 29.4609 254.891 28.8047V4.80469C254.891 4.14844 255.016 3.53125 255.266 2.95312C255.516 2.35938 255.859 1.85156 256.297 1.42969C256.734 0.992188 257.242 0.648438 257.82 0.398438C258.414 0.132812 259.039 0 259.695 0H278.891C279.547 0 280.164 0.132812 280.742 0.398438C281.336 0.648438 281.852 0.992188 282.289 1.42969C282.727 1.85156 283.07 2.35938 283.32 2.95312C283.57 3.53125 283.695 4.14844 283.695 4.80469V28.8047ZM259.695 4.80469V28.8047H278.891V4.80469H259.695Z" fill="white"/>
<path d="M297.148 33.6094H292.344V0H297.148L317.352 26.0625V0H322.156V33.6094H317.352L297.148 7.54688V33.6094Z" fill="white"/>
</svg>
