<svg width="323" height="34" viewBox="0 0 323 34" fill="none" xmlns="http://www.w3.org/2000/svg">
<path d="M6.11719 19.6094C5.46094 19.6094 4.83594 19.4844 4.24219 19.2344C3.66406 18.9688 3.15625 18.625 2.71875 18.2031C2.28125 17.7656 1.9375 17.2578 1.6875 16.6797C1.4375 16.0859 1.3125 15.4609 1.3125 14.8047V5.19531C1.3125 4.53906 1.4375 3.92188 1.6875 3.34375C1.9375 2.75 2.28125 2.24219 2.71875 1.82031C3.15625 1.38281 3.66406 1.03906 4.24219 0.789062C4.83594 0.523438 5.46094 0.390625 6.11719 0.390625H22.4297C23.0859 0.390625 23.7031 0.523438 24.2812 0.789062C24.875 1.03906 25.3906 1.38281 25.8281 1.82031C26.2656 2.24219 26.6094 2.75 26.8594 3.34375C27.1094 3.92188 27.2344 4.53906 27.2344 5.19531V9.53125H22.4297V5.19531H6.11719V14.8047H22.4297C23.0859 14.8047 23.7031 14.9297 24.2812 15.1797C24.875 15.4297 25.3906 15.7734 25.8281 16.2109C26.2656 16.6484 26.6094 17.1641 26.8594 17.7578C27.1094 18.3359 27.2344 18.9531 27.2344 19.6094V29.1953C27.2344 29.8516 27.1094 30.4766 26.8594 31.0703C26.6094 31.6484 26.2656 32.1562 25.8281 32.5938C25.3906 33.0312 24.875 33.375 24.2812 33.625C23.7031 33.875 23.0859 34 22.4297 34H5.64844C4.99219 34 4.36719 33.875 3.77344 33.625C3.19531 33.375 2.6875 33.0312 2.25 32.5938C1.8125 32.1562 1.46875 31.6484 1.21875 31.0703C0.96875 30.4766 0.84375 29.8516 0.84375 29.1953V24.8828H5.64844V29.1953H22.4297V19.6094H6.11719Z" fill="#FF9900"/>
<path d="M35.9062 0.390625H60.3984V5.19531H40.7109V14.8047H57.5156V19.6094H40.7109V29.1953H60.3984V34H35.9062V0.390625Z" fill="#FF9900"/>
<path d="M94.1484 12.3906C94.1484 17.0781 92.1484 19.75 88.1484 20.4062L94.4766 34H89.1562L82.9219 20.5703H72.3984V34H67.5938V0.390625H85.9922C91.4297 0.390625 94.1484 3.11719 94.1484 8.57031V12.3906ZM72.3984 15.7656H85.7344C87.0156 15.7656 87.9375 15.4844 88.5 14.9219C89.0625 14.3594 89.3438 13.4375 89.3438 12.1562V8.80469C89.3438 7.52344 89.0625 6.60156 88.5 6.03906C87.9375 5.47656 87.0156 5.19531 85.7344 5.19531H72.3984V15.7656Z" fill="#FF9900"/>
<path d="M99.3047 0.390625H126.188V5.19531H115.148V34H110.344V5.19531H99.3047V0.390625Z" fill="#FF9900"/>
<path d="M149.117 34H144.312V0.390625H149.117L169.32 26.4531V0.390625H174.125V34H169.32L149.117 7.9375V34Z" fill="black"/>
<path d="M197.633 0.390625L210.594 34H205.789L202.812 26.2656H187.648L184.672 34H179.867L192.828 0.390625H197.633ZM189.477 21.4609H200.961L195.242 6.64844L189.477 21.4609Z" fill="black"/>
<path d="M209.633 0.390625H236.516V5.19531H225.477V34H220.672V5.19531H209.633V0.390625Z" fill="black"/>
<path d="M247.086 0.390625V34H242.281V0.390625H247.086Z" fill="black"/>
<path d="M284.539 29.1953C284.539 29.8516 284.414 30.4766 284.164 31.0703C283.914 31.6484 283.57 32.1562 283.133 32.5938C282.695 33.0312 282.18 33.375 281.586 33.625C281.008 33.875 280.391 34 279.734 34H260.539C259.883 34 259.258 33.875 258.664 33.625C258.086 33.375 257.578 33.0312 257.141 32.5938C256.703 32.1562 256.359 31.6484 256.109 31.0703C255.859 30.4766 255.734 29.8516 255.734 29.1953V5.19531C255.734 4.53906 255.859 3.92188 256.109 3.34375C256.359 2.75 256.703 2.24219 257.141 1.82031C257.578 1.38281 258.086 1.03906 258.664 0.789062C259.258 0.523438 259.883 0.390625 260.539 0.390625H279.734C280.391 0.390625 281.008 0.523438 281.586 0.789062C282.18 1.03906 282.695 1.38281 283.133 1.82031C283.57 2.24219 283.914 2.75 284.164 3.34375C284.414 3.92188 284.539 4.53906 284.539 5.19531V29.1953ZM260.539 5.19531V29.1953H279.734V5.19531H260.539Z" fill="black"/>
<path d="M297.992 34H293.188V0.390625H297.992L318.195 26.4531V0.390625H323V34H318.195L297.992 7.9375V34Z" fill="black"/>
</svg>
